<?xml version="1.0" encoding="UTF-8" standalone="no"?>
<!-- Created with Inkscape (http://www.inkscape.org/) -->

<svg
   width="167mm"
   height="167mm"
   viewBox="0 0 167 167"
   version="1.1"
   id="svg5"
   xml:space="preserve"
   inkscape:version="1.2.1 (9c6d41e410, 2022-07-14)"
   sodipodi:docname="linkdoku.svg"
   xmlns:inkscape="http://www.inkscape.org/namespaces/inkscape"
   xmlns:sodipodi="http://sodipodi.sourceforge.net/DTD/sodipodi-0.dtd"
   xmlns="http://www.w3.org/2000/svg"
   xmlns:svg="http://www.w3.org/2000/svg"><sodipodi:namedview
     id="namedview7"
     pagecolor="#ffffff"
     bordercolor="#666666"
     borderopacity="1.0"
     inkscape:showpageshadow="2"
     inkscape:pageopacity="0.0"
     inkscape:pagecheckerboard="0"
     inkscape:deskcolor="#d1d1d1"
     inkscape:document-units="mm"
     showgrid="false"
     inkscape:zoom="0.7786055"
     inkscape:cx="122.65518"
     inkscape:cy="376.31381"
     inkscape:window-width="1918"
     inkscape:window-height="1048"
     inkscape:window-x="0"
     inkscape:window-y="30"
     inkscape:window-maximized="1"
     inkscape:current-layer="layer1" /><defs
     id="defs2" /><g
     inkscape:label="Layer 1"
     inkscape:groupmode="layer"
     id="layer1"
     transform="translate(-18.562994,-48.90047)"><rect
       style="fill:#ffffff;fill-opacity:1;stroke:none;stroke-width:0.842473"
       id="rect1338"
       width="167"
       height="167"
       x="18.562994"
       y="48.900471" /><g
       style="fill:#ffffff;stroke:#333333;stroke-width:903"
       id="g1358"
       transform="matrix(0.18520833,0,0,0.18520833,9.6729941,40.01047)"><path
         stroke-dasharray="4, 296"
         d="M 48,500 H 953 M 500,48 v 905"
         id="path1346"
         style="fill:#ffffff" /><path
         stroke-dasharray="1, 99"
         d="m 49.5,500 h 905 M 500,49.5 v 905"
         id="path1348"
         style="fill:#ffffff" /></g><g
       id="g1582"
       transform="matrix(3.9368176,0,0,3.9368176,39.735875,70.070406)"><g
         id="g1511">
	<path
   d="M 30.543,5.74 26.465,1.705 C 24.66,-0.072 21.729,-0.084 19.92,1.685 l -4.525,4.414 c -1.812,1.768 -1.82,4.648 -0.02,6.424 l 2.586,-2.484 C 17.699,9.248 18.022,8.342 18.662,7.715 l 2.879,-2.807 c 0.912,-0.885 2.375,-0.881 3.275,0.01 l 2.449,2.42 c 0.9,0.891 0.896,2.326 -0.01,3.213 l -2.879,2.809 c -0.609,0.594 -1.609,0.92 -2.385,0.711 l -2.533,2.486 c 1.803,1.781 4.732,1.789 6.545,0.02 l 4.52,-4.41 c 1.817,-1.771 1.823,-4.648 0.02,-6.427 z"
   id="path1475" />
	<path
   d="m 13.975,21.894 c 0.215,0.773 -0.129,1.773 -0.752,2.381 l -2.689,2.627 C 9.612,27.802 8.12,27.797 7.202,26.89 L 4.704,24.429 C 3.788,23.523 3.794,22.05 4.716,21.154 l 2.691,-2.627 c 0.656,-0.637 1.598,-0.961 2.42,-0.689 l 2.594,-2.57 c -1.836,-1.811 -4.824,-1.82 -6.668,-0.02 l -4.363,4.26 c -1.846,1.803 -1.855,4.734 -0.02,6.549 l 4.154,4.107 c 1.834,1.809 4.82,1.818 6.668,0.018 l 4.363,-4.26 c 1.844,-1.805 1.852,-4.734 0.02,-6.547 z"
   id="path1477" />
	<path
   d="m 11.139,20.722 c 0.611,0.617 1.611,0.623 2.234,0.008 l 7.455,-7.416 c 0.621,-0.617 0.625,-1.615 0.008,-2.234 -0.613,-0.615 -1.611,-0.619 -2.23,-0.006 l -7.457,7.414 c -0.62,0.615 -0.624,1.613 -0.01,2.234 z"
   id="path1479" />
	<g
   id="g1481">
	</g>
	<g
   id="g1483">
	</g>
	<g
   id="g1485">
	</g>
	<g
   id="g1487">
	</g>
	<g
   id="g1489">
	</g>
	<g
   id="g1491">
	</g>
	<g
   id="g1493">
	</g>
	<g
   id="g1495">
	</g>
	<g
   id="g1497">
	</g>
	<g
   id="g1499">
	</g>
	<g
   id="g1501">
	</g>
	<g
   id="g1503">
	</g>
	<g
   id="g1505">
	</g>
	<g
   id="g1507">
	</g>
	<g
   id="g1509">
	</g>
</g><g
         id="g1513">
</g><g
         id="g1515">
</g><g
         id="g1517">
</g><g
         id="g1519">
</g><g
         id="g1521">
</g><g
         id="g1523">
</g><g
         id="g1525">
</g><g
         id="g1527">
</g><g
         id="g1529">
</g><g
         id="g1531">
</g><g
         id="g1533">
</g><g
         id="g1535">
</g><g
         id="g1537">
</g><g
         id="g1539">
</g><g
         id="g1541">
</g></g></g></svg>
